<?xml version="1.0" encoding="utf-8"?>
<!-- Generator: Adobe Illustrator 25.4.1, SVG Export Plug-In . SVG Version: 6.00 Build 0)  -->
<svg version="1.1" id="Layer_1" xmlns="http://www.w3.org/2000/svg" xmlns:xlink="http://www.w3.org/1999/xlink" x="0px" y="0px"
	 viewBox="0 0 500 381.1" style="enable-background:new 0 0 500 381.1;" xml:space="preserve">
<style type="text/css">
	.st0{fill:#231E1E;}
</style>
<g>
	<g>
		<path class="st0" d="M5.8,108.3h14.5v2.9h-11v4.7h9.8v3H9.2v5.1h11.2v3H5.8V108.3z"/>
		<path class="st0" d="M35.1,126.5c-1.2-0.4-2.1-1.1-2.8-1.9c-0.7-0.9-1.1-1.9-1.1-3.2l0-0.6h3.5c0,0.1,0,0.3,0,0.5
			c0,0.9,0.4,1.6,1.2,2.1c0.8,0.5,1.8,0.8,3.2,0.8c1.4,0,2.5-0.2,3.2-0.6c0.7-0.4,1.1-1,1.1-1.7c0-0.6-0.2-1.1-0.6-1.4
			c-0.4-0.4-0.9-0.7-1.5-0.9c-0.6-0.2-1.5-0.5-2.6-0.8c-1.5-0.4-2.7-0.8-3.6-1.1c-0.9-0.4-1.7-0.9-2.3-1.7c-0.6-0.7-1-1.7-1-2.9
			c0-1.7,0.7-2.9,2.1-3.8c1.4-0.9,3.2-1.3,5.4-1.3c2.1,0,3.9,0.4,5.2,1.3c1.3,0.9,2,2.2,2,4v0.3h-3.4v-0.3c0-0.8-0.3-1.4-1-1.8
			c-0.7-0.4-1.6-0.7-2.8-0.7c-1.2,0-2.2,0.2-2.9,0.5c-0.7,0.4-1,0.9-1,1.5c0,0.5,0.2,0.9,0.6,1.2c0.4,0.3,0.9,0.6,1.5,0.8
			c0.6,0.2,1.4,0.4,2.4,0.7c1.5,0.4,2.7,0.8,3.7,1.2c0.9,0.4,1.8,0.9,2.4,1.7c0.7,0.7,1,1.7,1,2.9c0,2-0.7,3.4-2.1,4.4
			c-1.4,0.9-3.3,1.4-5.7,1.4C37.5,127.2,36.2,127,35.1,126.5z"/>
		<path class="st0" d="M62.7,111.2h-6v-3h15.4v3h-6v15.6h-3.4V111.2z"/>
		<path class="st0" d="M81,123.4h3.4v3.4H81V123.4z"/>
	</g>
	<g>
		<path class="st0" d="M411.6,126c0-1,0.2-1.9,0.7-2.7c0.5-0.8,1-1.5,1.7-2.2s1.6-1.3,2.7-2.1c0.9-0.7,1.7-1.3,2.2-1.8
			c0.6-0.5,1-1,1.4-1.5c0.5-0.7,0.8-1.5,0.8-2.4c0-0.7-0.2-1.3-0.7-1.8s-1.2-0.7-2.2-0.7c-1,0-1.8,0.2-2.3,0.7
			c-0.5,0.5-0.8,1.2-0.8,2.2v1.1h-3.2c-0.1-0.3-0.1-0.7-0.1-1.1c0-1.9,0.6-3.3,1.9-4.2c1.2-0.9,2.8-1.4,4.7-1.4
			c1.5,0,2.7,0.3,3.6,0.8c0.9,0.6,1.5,1.2,1.9,2.1c0.4,0.8,0.5,1.7,0.5,2.5c0,1.1-0.3,2.2-0.8,3.1c-0.5,0.9-1.2,1.7-2,2.4
			c-0.8,0.6-1.7,1.4-2.9,2.3c-0.5,0.3-0.9,0.7-1.4,1c-0.5,0.3-0.8,0.6-1.1,0.9c-0.3,0.3-0.5,0.6-0.6,0.8h8.9v3h-12.9V126z"/>
		<path class="st0" d="M437.6,126.4c-0.9-0.6-1.7-1.6-2.2-3c-0.5-1.4-0.7-3.3-0.7-5.8c0-2.5,0.2-4.4,0.7-5.8c0.5-1.4,1.2-2.4,2.2-3
			c0.9-0.6,2.1-0.9,3.5-0.9c1.4,0,2.6,0.3,3.5,0.9c0.9,0.6,1.7,1.6,2.2,3c0.5,1.4,0.8,3.3,0.8,5.8c0,2.4-0.3,4.4-0.8,5.8
			c-0.5,1.4-1.2,2.4-2.2,3c-0.9,0.6-2.1,0.9-3.5,0.9C439.7,127.3,438.6,127,437.6,126.4z M443.1,124c0.4-0.5,0.8-1.1,0.9-2
			c0.2-0.9,0.2-2.1,0.2-3.6v-1.3c0-1.5-0.1-2.7-0.2-3.6c-0.2-0.9-0.5-1.6-0.9-2c-0.5-0.5-1.1-0.7-1.9-0.7s-1.5,0.2-1.9,0.7
			c-0.5,0.5-0.8,1.1-0.9,2c-0.2,0.9-0.2,2.1-0.2,3.6v1.3c0,1.5,0.1,2.7,0.2,3.6c0.2,0.9,0.5,1.6,0.9,2c0.4,0.5,1.1,0.7,1.9,0.7
			S442.6,124.4,443.1,124z"/>
		<path class="st0" d="M459.2,124.3h4.5v-11.8h-4.5v-2c0.8-0.1,1.8-0.3,3-0.7c1.2-0.4,2.3-0.9,3.2-1.4h1.6v15.9h4.1v2.7h-11.9V124.3
			z"/>
		<path class="st0" d="M482.6,125.8c-1.2-1-1.7-2.4-1.7-4.1v-0.4h3.3v0.5c0,0.9,0.3,1.6,0.8,2.1c0.6,0.5,1.4,0.7,2.4,0.7
			c1,0,1.8-0.2,2.4-0.7c0.6-0.5,0.9-1.2,0.9-2.2c0-1.9-1.2-2.9-3.5-2.9h-1.6v-2.7h1.7c0.9,0,1.6-0.2,2.1-0.7
			c0.6-0.5,0.8-1.2,0.8-2.1c0-0.9-0.3-1.5-0.8-2c-0.5-0.4-1.2-0.7-2-0.7c-0.9,0-1.6,0.2-2.1,0.7c-0.5,0.5-0.8,1.1-0.8,2v0.4h-3.3
			v-0.7c0-1,0.3-1.9,0.8-2.7s1.2-1.4,2.2-1.8c0.9-0.4,2-0.6,3.2-0.6c1.9,0,3.4,0.4,4.5,1.3c1.1,0.9,1.7,2.1,1.7,3.8
			c0,1-0.3,1.9-0.8,2.5s-1.3,1.2-2.2,1.6v0.1c1,0.3,1.8,0.8,2.4,1.6c0.6,0.8,0.9,1.8,0.9,2.9c0,1.1-0.3,2-0.8,2.8
			c-0.6,0.8-1.3,1.4-2.3,1.8c-1,0.4-2.1,0.6-3.4,0.6C485.4,127.3,483.8,126.8,482.6,125.8z"/>
	</g>
	<g>
		<path class="st0" d="M12,313.1c-4.2-4.3-6.3-10.8-6.3-19.5c0-8.7,2.2-15.2,6.6-19.5c4.4-4.3,10.7-6.5,19-6.5c4.4,0,8.3,0.7,11.9,2
			c3.5,1.3,6.3,3.4,8.4,6c2.1,2.7,3.1,6,3.1,9.9h-9.6c0-3.2-1.3-5.6-3.9-7.4c-2.6-1.8-5.8-2.7-9.6-2.7c-5.5,0-9.5,1.4-12.2,4.3
			c-2.7,2.9-4,7.2-4,13v1.5c0,6,1.3,10.4,3.8,13.1c2.5,2.8,6.3,4.2,11.5,4.2c4.6,0,8.2-1,10.8-3.1c2.6-2.1,3.9-5,3.9-8.8v-0.1H29.3
			v-7.7h25.4v26.8h-6.6l-0.8-5.6c-2.2,2.2-4.7,3.8-7.4,4.9c-2.7,1-5.9,1.6-9.6,1.6C22.3,319.4,16.2,317.3,12,313.1z"/>
		<path class="st0" d="M117.5,268.5h11.8l19.5,50.1h-10.1l-4.1-10.9h-22.9l-4,10.9H98L117.5,268.5z M131.6,299.8l-5.1-13.7
			c-0.8-1.9-1.6-4.4-2.5-7.5c-0.1-0.4-0.3-0.8-0.4-1.2c-0.1-0.4-0.2-0.7-0.3-0.9H123l-0.7,2.3l-2.5,7.3l-5.1,13.7H131.6z"/>
		<path class="st0" d="M192.6,268.5h9.4v42h26.6v8.1h-35.9V268.5z"/>
		<path class="st0" d="M288.9,268.5h11.8l19.5,50.1h-10.1l-4.1-10.9H283l-4,10.9h-9.6L288.9,268.5z M303,299.8l-5.1-13.7
			c-0.8-1.9-1.6-4.4-2.5-7.5c-0.1-0.4-0.3-0.8-0.4-1.2s-0.2-0.7-0.3-0.9h-0.4l-0.7,2.3l-2.5,7.3l-5.1,13.7H303z"/>
		<path class="st0" d="M377.1,292.3l-16.5-23.8h11.4l11.2,16.8h0.4l11.2-16.8h10.7l-16.5,23.7l18.3,26.4H396L383,299.1h-0.4
			l-12.9,19.4h-10.7L377.1,292.3z"/>
		<path class="st0" d="M465.7,298.2l-19.4-29.7h10.7l13.4,21.3h0.4l13.2-21.3h10.3l-19.3,29.7v20.4h-9.3V298.2z"/>
	</g>
	<g>
		<path class="st0" d="M184.1,354.4h3.5v7.6h8.8v-7.6h3.5V373h-3.5v-8h-8.8v8h-3.5V354.4z"/>
		<path class="st0" d="M216.2,370.9c-1.6-1.6-2.4-4-2.4-7.2c0-3.2,0.8-5.6,2.4-7.2c1.6-1.6,3.9-2.4,6.9-2.4s5.3,0.8,6.9,2.4
			c1.6,1.6,2.4,4,2.4,7.2c0,3.2-0.8,5.6-2.4,7.2c-1.6,1.6-3.9,2.4-6.9,2.4S217.8,372.5,216.2,370.9z M227.4,368.7
			c1-1.1,1.5-2.7,1.5-4.8v-0.6c0-2.1-0.5-3.7-1.5-4.8c-1-1.1-2.4-1.6-4.3-1.6c-1.9,0-3.3,0.5-4.3,1.6c-1,1.1-1.5,2.7-1.5,4.8v0.6
			c0,2.1,0.5,3.7,1.5,4.8c1,1.1,2.4,1.6,4.3,1.6C225,370.4,226.4,369.8,227.4,368.7z"/>
		<path class="st0" d="M251,357.4h-6v-3h15.4v3h-6V373H251V357.4z"/>
		<path class="st0" d="M273.7,354.4h14.5v2.9h-11v4.7h9.8v3h-9.8v5.1h11.2v3h-14.6V354.4z"/>
		<path class="st0" d="M302.6,354.4h3.5v15.6h9.9v3h-13.3V354.4z"/>
	</g>
	<path class="st0" d="M358.8,116.6c0-12.3-4.8-23.9-13.5-32.6c-1.7-1.7-3.5-3.2-5.4-4.6c0.4-2.3,0.5-4.7,0.5-7.1
		c0-25.4-20.7-46.1-46.1-46.1c-2.4,0-4.8,0.2-7.1,0.5c-1.4-1.9-2.9-3.7-4.6-5.4c-18-18-47.3-18-65.3,0c-1.7,1.7-3.2,3.5-4.6,5.4
		c-2.3-0.4-4.7-0.5-7.1-0.5c-25.4,0-46.1,20.7-46.1,46.1c0,2.4,0.2,4.8,0.5,7.1c-1.9,1.4-3.7,2.9-5.4,4.6
		c-8.7,8.7-13.5,20.3-13.5,32.6s4.8,23.9,13.5,32.6c1.7,1.7,3.5,3.2,5.4,4.6c-0.4,2.3-0.5,4.7-0.5,7.1c0,25.4,20.7,46.1,46.1,46.1
		c2.4,0,4.8-0.2,7.1-0.5c1.4,1.9,2.9,3.7,4.6,5.4c8.7,8.7,20.3,13.5,32.6,13.5c12.3,0,23.9-4.8,32.6-13.5c1.7-1.7,3.2-3.5,4.6-5.4
		c2.3,0.4,4.7,0.5,7.1,0.5c25.4,0,46.1-20.7,46.1-46.1c0-2.4-0.2-4.8-0.5-7.1c1.9-1.4,3.7-2.9,5.4-4.6
		C354,140.5,358.8,128.9,358.8,116.6z M294.3,29.8c23.4,0,42.5,19.1,42.5,42.5c0,1.6-0.1,3.2-0.3,4.8c-7.1-4.3-15.3-6.6-23.8-6.6
		c-7.9,0-15.5,2-22.2,5.7c7.9-14.3,7.6-32-0.9-46.1C291.1,29.9,292.7,29.8,294.3,29.8z M270.5,111.8c3.4,2.1,7.1,3.7,11,4.8
		c-3.9,1.1-7.6,2.7-11,4.8C270.1,118.2,270.1,115,270.5,111.8z M267.1,123.7c-3.8,2.8-7.2,6.2-10,10c-2.3-0.4-4.7-0.5-7.1-0.5
		s-4.8,0.2-7.1,0.5c-2.8-3.8-6.2-7.2-10-10c0.4-2.3,0.5-4.7,0.5-7.1s-0.2-4.8-0.5-7.1c3.8-2.8,7.2-6.2,10-10
		c2.3,0.4,4.7,0.6,7.1,0.6s4.7-0.2,7.1-0.6c2.8,3.8,6.2,7.2,10,10C266.4,114.2,266.4,119,267.1,123.7z M267.9,127.7
		c0.9,3.9,2.4,7.6,4.4,11.2c-3.5-1.9-7.2-3.4-11.1-4.4C263.1,132,265.4,129.7,267.9,127.7z M238.9,134.5c-3.9,1-7.6,2.4-11.1,4.3
		c1.9-3.5,3.4-7.2,4.3-11.1C234.6,129.7,236.9,132,238.9,134.5z M229.8,116.6c0,1.6-0.1,3.2-0.3,4.8c-3.4-2.1-7.1-3.7-11-4.8
		c3.9-1.1,7.6-2.8,11-4.8C229.7,113.4,229.8,115,229.8,116.6z M232.1,105.5c-1-3.9-2.4-7.6-4.4-11.1c3.5,2,7.3,3.4,11.2,4.4
		C236.9,101.2,234.6,103.5,232.1,105.5z M261.1,98.7c3.9-0.9,7.6-2.4,11.2-4.4c-2,3.6-3.4,7.3-4.4,11.2
		C265.4,103.5,263.1,101.2,261.1,98.7z M258.7,95.5c-4.4-6.7-6.9-14.6-6.9-23.2c0-20.4,14.5-37.5,33.7-41.6
		c10.8,16.5,8.9,38.8-5.5,53.3C274,90,266.5,93.9,258.7,95.5z M254.8,96.1c-3.2,0.4-6.4,0.4-9.6,0c2.1-3.4,3.7-7.1,4.8-11
		C251.1,89,252.7,92.7,254.8,96.1z M241.3,95.5C233.5,93.9,226,90,220,84c-14.4-14.4-16.3-36.8-5.5-53.3c19.2,4,33.7,21.1,33.7,41.6
		C248.2,80.8,245.6,88.8,241.3,95.5z M228.9,107.9c-6.7,4.4-14.7,6.9-23.2,6.9c-20.4,0-37.5-14.5-41.6-33.7
		c6.8-4.5,14.8-6.9,23.2-6.9c11.3,0,22,4.4,30,12.4C223.3,92.5,227.2,99.8,228.9,107.9z M228.9,125.4c-1.7,8-5.6,15.4-11.5,21.3
		c-8,8-18.7,12.4-30,12.4c-8.4,0-16.4-2.4-23.2-6.9c4-19.2,21.1-33.7,41.6-33.7C214.3,118.4,222.2,121,228.9,125.4z M241.2,137.7
		c4.4,6.7,6.9,14.7,6.9,23.2c0,20.4-14.5,37.5-33.7,41.6c-10.8-16.5-8.9-38.8,5.5-53.3C225.9,143.3,233.2,139.4,241.2,137.7z
		 M245.2,137.1c1.6-0.2,3.2-0.3,4.8-0.3c1.6,0,3.2,0.1,4.8,0.3c-2.1,3.4-3.7,7.1-4.8,11C248.9,144.2,247.2,140.5,245.2,137.1z
		 M258.8,137.7c8,1.7,15.4,5.6,21.3,11.5c14.4,14.4,16.3,36.8,5.5,53.3c-19.2-4-33.7-21.1-33.7-41.6
		C251.8,152.4,254.4,144.4,258.8,137.7z M271.1,125.3c6.7-4.4,14.6-6.9,23.2-6.9c20.4,0,37.5,14.5,41.6,33.7
		c-6.8,4.5-14.8,6.9-23.2,6.9c-11.3,0-22-4.4-30-12.4C276.6,140.6,272.8,133.2,271.1,125.3z M271.1,107.9
		c1.6-7.8,5.4-15.3,11.5-21.3c8-8,18.7-12.4,30-12.4c8.4,0,16.4,2.4,23.2,6.9c-4,19.2-21.1,33.7-41.6,33.7
		C285.8,114.8,277.8,112.2,271.1,107.9z M220,23.9c8.3-8.3,19.2-12.4,30-12.4c10.9,0,21.8,4.1,30,12.4c1.2,1.2,2.2,2.4,3.2,3.6
		c-16,4-28.7,16.2-33.2,32c-4.6-15.7-17.3-28-33.2-32C217.8,26.3,218.8,25.1,220,23.9z M163.2,72.3c0-23.4,19.1-42.5,42.5-42.5
		c1.6,0,3.2,0.1,4.8,0.3c-8.5,14.1-8.8,31.7-0.9,46.1c-6.7-3.7-14.3-5.7-22.2-5.7c-8.5,0-16.7,2.3-23.9,6.6
		C163.3,75.5,163.2,73.9,163.2,72.3z M157.3,146.7c-8-8-12.4-18.7-12.4-30s4.4-22,12.4-30c1.1-1.1,2.4-2.2,3.6-3.2
		c4,16,16.2,28.7,32,33.2c-15.7,4.6-28,17.3-32,33.2C159.7,148.8,158.4,147.8,157.3,146.7z M205.7,203.4
		c-23.4,0-42.5-19.1-42.5-42.5c0-1.6,0.1-3.2,0.3-4.8c7.1,4.3,15.3,6.6,23.9,6.6c7.9,0,15.5-2,22.2-5.7c-7.9,14.3-7.6,32,0.9,46.1
		C208.9,203.3,207.3,203.4,205.7,203.4z M280,209.3c-8,8-18.7,12.4-30,12.4c-11.3,0-22-4.4-30-12.4c-1.2-1.2-2.2-2.4-3.2-3.6
		c16-4,28.7-16.2,33.2-32c4.6,15.7,17.3,28,33.2,32C282.2,207,281.2,208.2,280,209.3z M336.8,160.9c0,23.4-19.1,42.5-42.5,42.5
		c-1.6,0-3.2-0.1-4.8-0.3c8.5-14.1,8.8-31.7,0.9-46.1c6.7,3.7,14.3,5.7,22.2,5.7c8.5,0,16.7-2.3,23.8-6.6
		C336.7,157.7,336.8,159.3,336.8,160.9z M339.1,149.8c-4-16-16.2-28.7-32-33.2c15.7-4.6,28-17.3,32-33.2c1.2,1,2.5,2,3.6,3.2
		c8,8,12.4,18.7,12.4,30s-4.4,22-12.4,30C341.6,147.8,340.3,148.8,339.1,149.8z"/>
</g>
</svg>
